PathFileType	4	(X/Y/Z)	s01c0202.trc
DataRate	CameraRate	NumFrames	NumMarkers	Units	OrigDataRate	OrigDataStartFrame	OrigNumFrames
200	200	4	48	mm	200	1750	2000
Frame#	Time	racr			lacr			c7			jug			rlel			rdr			llel			ldr			s2			lic			ric			lasi			rasi			rpsi			lpsi			rgt			lgt			rth1			rth2			rth3			rth4			rlfc			rsh1			rsh2			rsh3			rsh4			rlmal			rmmal			rcal			rtoe			rmt5			lth1			lth2			lth4			lth3			llfc			lsh1			lsh2			lsh3			lsh4			llmal			lmmal			lcal			ltoe			lmt5			SBIKE			LBIKE			RBIKE			
		X1	Y1	Z1	X2	Y2	Z2	X3	Y3	Z3	X4	Y4	Z4	X5	Y5	Z5	X6	Y6	Z6	X7	Y7	Z7	X8	Y8	Z8	X9	Y9	Z9	X10	Y10	Z10	X11	Y11	Z11	X12	Y12	Z12	X13	Y13	Z13	X14	Y14	Z14	X15	Y15	Z15	X16	Y16	Z16	X17	Y17	Z17	X18	Y18	Z18	X19	Y19	Z19	X20	Y20	Z20	X21	Y21	Z21	X22	Y22	Z22	X23	Y23	Z23	X24	Y24	Z24	X25	Y25	Z25	X26	Y26	Z26	X27	Y27	Z27	X28	Y28	Z28	X29	Y29	Z29	X30	Y30	Z30	X31	Y31	Z31	X32	Y32	Z32	X33	Y33	Z33	X34	Y34	Z34	X35	Y35	Z35	X36	Y36	Z36	X37	Y37	Z37	X38	Y38	Z38	X39	Y39	Z39	X40	Y40	Z40	X41	Y41	Z41	X42	Y42	Z42	X43	Y43	Z43	X44	Y44	Z44	X45	Y45	Z45	X46	Y46	Z46	X47	Y47	Z47	X48	Y48	Z48	
1750	8.7500	490.353332	1327.998234	-142.594062	495.263006	1311.018783	-481.873273	449.463625	1401.476612	-315.297455	457.441266	1237.320781	-306.393873	512.286873	1061.411736	-21.124908	678.462451	875.834103	-80.939065	503.568990	1032.306197	-575.549422	656.390184	866.347192	-458.373000	-80.419792	1182.389553	-271.190714	88.369784	1156.932424	-447.467245	95.067851	1182.175514	-128.608127	74.946927	1100.368968	-428.188603	108.417626	1134.431732	-157.189450	-42.680486	1220.608697	-227.065625	-50.520833	1213.673085	-332.745721	34.253182	1091.597086	-77.009718	-8.714542	1023.218991	-459.358646	143.383197	1020.414390	-58.980071	220.974772	990.869729	-61.985768	302.193376	951.664819	-73.217748	241.721189	1038.704237	-83.106078	370.759183	872.615897	-95.243079	278.759071	800.810430	-68.561178	219.501162	739.803427	-74.469524	151.888472	683.287502	-88.588826	254.103834	706.651384	-111.116177	58.512845	596.639206	-108.872220	100.301630	595.757072	-188.473566	1.509530	576.488778	-162.053505	254.570237	480.574583	-144.976436	146.118583	484.060537	-75.707949	27.661243	900.064938	-462.831393	83.279302	830.625094	-463.528524	127.357021	864.650059	-465.919865	132.759880	762.875037	-443.766861	191.592811	659.831197	-427.964790	155.353319	552.599925	-454.528247	163.063782	466.199444	-446.839267	168.694716	381.602909	-431.426154	220.147582	474.006358	-424.552205	176.919134	253.817483	-410.206408	0.000000	0.000000	-0.000000	137.436983	221.723994	-367.997260	413.298309	197.849607	-385.108014	306.192984	176.046554	-447.482627	-230.448945	889.966871	-255.919166	-22.866360	80.326614	-456.482026	-22.910709	80.379978	-56.301481	
1751	8.7550	489.264776	1328.085941	-142.561352	494.067350	1311.274161	-481.689101	448.193408	1401.526558	-315.033230	456.363717	1237.374543	-306.349119	512.327685	1061.528446	-21.307239	678.493281	875.803264	-81.026007	503.448096	1032.676931	-575.221092	656.415496	866.398482	-458.344495	-81.252663	1181.718400	-270.628390	87.471801	1156.835726	-447.338201	94.128117	1181.653889	-128.348092	74.231328	1100.285798	-428.179863	107.670354	1134.052347	-157.122888	-43.559407	1219.930498	-226.800983	-51.390026	1213.166666	-332.491307	33.735350	1090.874418	-76.919201	-9.388172	1022.917279	-459.301371	143.065028	1019.913388	-59.231841	220.798546	990.549511	-62.342509	302.087571	951.564915	-73.740726	241.376944	1038.461894	-83.411069	370.861970	872.868943	-95.957862	278.852381	800.992309	-69.040066	219.585156	739.949294	-74.869975	152.011749	683.405052	-88.831667	254.198364	706.824621	-111.526910	58.613023	596.736667	-108.945590	100.360001	595.776948	-188.580726	1.583758	576.511793	-162.066051	254.680622	480.694618	-145.001624	146.229230	484.160824	-75.730135	27.344831	899.742197	-462.830001	83.123466	830.399542	-463.524887	127.113829	864.539432	-465.923310	132.765411	762.788670	-443.714651	191.679667	659.750341	-427.976269	155.390936	552.519587	-454.536491	163.060054	466.120602	-446.876882	168.660583	381.504476	-431.443979	220.133755	473.878165	-424.567369	176.794872	253.748936	-410.220081	0.000000	0.000000	-0.000000	137.305979	221.630321	-367.998887	413.170667	197.798449	-385.105809	306.040357	175.961681	-447.469901	-230.481404	889.968984	-255.934714	-22.859131	80.318935	-456.511880	-22.907179	80.374587	-56.295427	
1752	8.7600	488.236040	1328.135433	-142.516346	492.823752	1311.587430	-481.488582	446.898965	1401.614599	-314.781181	455.315321	1237.513607	-306.254620	512.370743	1061.677236	-21.465907	678.516077	875.789371	-81.095634	503.362847	1033.080445	-574.833423	656.446997	866.454167	-458.276820	-82.094049	1181.040431	-270.823970	86.531428	1156.767074	-447.251665	93.156646	1181.074758	-128.036724	73.409358	1100.193773	-428.138772	107.002455	1133.610905	-156.903977	-44.440238	1219.311356	-226.539032	-52.354205	1212.639571	-332.189425	33.233301	1090.138839	-76.812632	-10.019599	1022.528796	-459.241760	142.798419	1019.396717	-59.442352	220.580715	990.267013	-62.705828	301.971977	951.511742	-74.292344	241.035718	1038.286014	-83.709993	370.841652	873.105171	-96.630322	278.960296	801.210799	-69.520065	219.696082	740.177725	-75.272127	152.160814	683.576771	-89.090822	254.307478	707.054572	-111.916627	58.727051	596.835751	-108.975747	100.446950	595.813960	-188.682901	1.664680	576.561733	-162.090887	254.814601	480.792474	-145.029377	146.365106	484.260763	-75.757034	27.006096	899.409098	-462.820076	82.920111	830.133716	-463.487482	126.847474	864.411337	-465.914747	132.954018	762.756360	-443.376279	191.737989	659.664745	-427.985447	155.401197	552.441846	-454.560784	163.033489	466.003130	-446.887800	168.601317	381.402971	-431.457519	220.113930	473.750448	-424.616592	176.659271	253.661842	-410.232809	0.000000	0.000000	-0.000000	137.162045	221.527013	-367.997876	413.005120	197.737768	-385.084136	305.898314	175.910427	-447.471493	-230.497991	889.978183	-255.949692	-22.866734	80.318859	-456.498796	-22.909456	80.390227	-56.308560	
1753	8.7650	487.175574	1328.195392	-142.435309	491.656059	1311.936648	-481.307833	445.620407	1401.693904	-314.602090	454.312942	1237.566985	-306.146249	512.397567	1061.807522	-21.632374	678.564483	875.780806	-81.182994	503.271752	1033.355711	-574.427517	656.473450	866.503043	-458.186441	-82.875935	1180.346320	-270.131432	85.544016	1156.687395	-447.117053	92.308603	1180.590555	-127.716825	72.595305	1100.033924	-428.184471	106.269873	1133.176443	-156.839963	-45.316519	1218.630794	-226.292132	-53.235920	1212.167681	-331.936793	32.695888	1089.460469	-76.736712	-10.673677	1022.152401	-459.142497	142.566455	1019.001673	-59.621898	220.346630	990.026518	-63.081080	301.835454	951.513347	-74.860423	240.643080	1038.160783	-84.062330	370.851811	873.286797	-97.333002	279.108301	801.472436	-70.053048	219.853963	740.425542	-75.676816	152.315834	683.780026	-89.312704	254.381797	707.262162	-112.308736	58.878784	596.952069	-109.049470	100.557851	595.866254	-188.782534	1.796150	576.621058	-162.104122	254.965724	480.883713	-145.062962	146.512383	484.357021	-75.769517	26.643783	899.067298	-462.800749	82.702237	829.890618	-463.493495	126.552035	864.219189	-465.902647	132.862257	762.612246	-443.331549	191.748836	659.586065	-427.999213	155.387421	552.351451	-454.593793	162.986258	465.888557	-446.895352	168.519055	381.265671	-431.473966	220.047127	473.609048	-424.614664	176.496636	253.573131	-410.255326	0.000000	0.000000	-0.000000	136.988727	221.421167	-368.007265	412.848365	197.644250	-385.092087	305.749331	175.815134	-447.463576	-230.523424	890.001547	-255.970663	-22.865401	80.325024	-456.501997	-22.915811	80.384831	-56.299744	
